<?xml version="1.0" encoding="UTF-8" standalone="no"?>
<!DOCTYPE svg PUBLIC "-//W3C//DTD SVG 1.1//EN"
 "http://www.w3.org/Graphics/SVG/1.1/DTD/svg11.dtd">
<!-- Generated by graphviz version 2.40.1 (20161225.0304)
 -->
<!-- Title: G_code_and_markdown Pages: 1 -->
<svg width="2252pt" height="218pt"
 viewBox="0.00 0.00 2251.99 218.00" xmlns="http://www.w3.org/2000/svg" xmlns:xlink="http://www.w3.org/1999/xlink">
<g id="graph0" class="graph" transform="scale(1 1) rotate(0) translate(4 214)">
<title>G_code_and_markdown</title>
<polygon fill="#ffffff" stroke="transparent" points="-4,4 -4,-214 2247.9931,-214 2247.9931,4 -4,4"/>
<!-- 1 -->
<g id="node1" class="node">
<title>1</title>
<ellipse fill="none" stroke="#c129e2" cx="638.4971" cy="-192" rx="60.3893" ry="18"/>
<text text-anchor="middle" x="638.4971" y="-188.3" font-family="Times,serif" font-size="14.00" fill="#000000">ScalingModel</text>
</g>
<!-- 2 -->
<g id="node2" class="node">
<title>2</title>
<ellipse fill="none" stroke="#c129e2" cx="380.4971" cy="-105" rx="60.3893" ry="18"/>
<text text-anchor="middle" x="380.4971" y="-101.3" font-family="Times,serif" font-size="14.00" fill="#000000">(β, r, μ, K, α)</text>
</g>
<!-- 1&#45;&gt;2 -->
<g id="edge1" class="edge">
<title>1&#45;&gt;2</title>
<path fill="none" stroke="#000000" d="M579.2064,-188.2221C521.3354,-183.5513 438.2124,-173.9243 411.4971,-156 402.8121,-150.1729 396.1566,-141.0123 391.2803,-132.0529"/>
<polygon fill="#000000" stroke="#000000" points="394.3631,-130.3894 386.8322,-122.9371 388.0721,-133.4592 394.3631,-130.3894"/>
<text text-anchor="middle" x="441.9971" y="-144.8" font-family="Times,serif" font-size="14.00" fill="#000000">destructure</text>
</g>
<!-- 4 -->
<g id="node4" class="node">
<title>4</title>
<ellipse fill="none" stroke="#c129e2" cx="589.4971" cy="-105" rx="32.4942" ry="18"/>
<text text-anchor="middle" x="589.4971" y="-101.3" font-family="Times,serif" font-size="14.00" fill="#000000">parms</text>
</g>
<!-- 1&#45;&gt;4 -->
<g id="edge2" class="edge">
<title>1&#45;&gt;4</title>
<path fill="none" stroke="#000000" d="M628.3443,-173.9735C621.4204,-161.6801 612.136,-145.1956 604.3801,-131.4249"/>
<polygon fill="#000000" stroke="#000000" points="607.2596,-129.4052 599.3026,-122.4097 601.1604,-132.8404 607.2596,-129.4052"/>
<text text-anchor="middle" x="632.9971" y="-144.8" font-family="Times,serif" font-size="14.00" fill="#000000">comp</text>
</g>
<!-- 10 -->
<g id="node10" class="node">
<title>10</title>
<ellipse fill="none" stroke="#c129e2" cx="871.4971" cy="-105" rx="27" ry="18"/>
<text text-anchor="middle" x="871.4971" y="-101.3" font-family="Times,serif" font-size="14.00" fill="#000000">dS</text>
</g>
<!-- 1&#45;&gt;10 -->
<g id="edge3" class="edge">
<title>1&#45;&gt;10</title>
<path fill="none" stroke="#000000" d="M671.7385,-176.9171C684.6499,-170.7777 699.4442,-163.393 712.4971,-156 723.1161,-149.9855 724.3455,-145.9578 735.4971,-141 767.7546,-126.659 806.9393,-117.0361 834.9466,-111.3752"/>
<polygon fill="#000000" stroke="#000000" points="835.9494,-114.7457 845.0956,-109.3979 834.6108,-107.8748 835.9494,-114.7457"/>
<text text-anchor="middle" x="752.9971" y="-144.8" font-family="Times,serif" font-size="14.00" fill="#000000">output</text>
</g>
<!-- 12 -->
<g id="node12" class="node">
<title>12</title>
<ellipse fill="none" stroke="#c129e2" cx="1281.4971" cy="-105" rx="27" ry="18"/>
<text text-anchor="middle" x="1281.4971" y="-101.3" font-family="Times,serif" font-size="14.00" fill="#000000">neg</text>
</g>
<!-- 1&#45;&gt;12 -->
<g id="edge4" class="edge">
<title>1&#45;&gt;12</title>
<path fill="none" stroke="#000000" d="M685.8319,-180.5847C695.9278,-178.288 706.5461,-175.9755 716.4971,-174 764.2278,-164.5244 779.155,-173.6661 824.4971,-156 835.8685,-151.5695 835.9529,-144.9584 847.4971,-141 920.5053,-115.9659 1153.1055,-107.9648 1244.3041,-105.751"/>
<polygon fill="#000000" stroke="#000000" points="1244.5374,-109.2466 1254.4532,-105.5146 1244.3743,-102.2485 1244.5374,-109.2466"/>
<text text-anchor="middle" x="861.4971" y="-144.8" font-family="Times,serif" font-size="14.00" fill="#000000">input</text>
</g>
<!-- 14 -->
<g id="node14" class="node">
<title>14</title>
<ellipse fill="none" stroke="#c129e2" cx="485.4971" cy="-105" rx="27" ry="18"/>
<text text-anchor="middle" x="485.4971" y="-101.3" font-family="Times,serif" font-size="14.00" fill="#000000">dI</text>
</g>
<!-- 1&#45;&gt;14 -->
<g id="edge5" class="edge">
<title>1&#45;&gt;14</title>
<path fill="none" stroke="#000000" d="M581.015,-186.2906C541.4839,-181.0389 493.9556,-171.6386 481.4971,-156 476.3609,-149.5528 475.4747,-141.0769 476.432,-132.8908"/>
<polygon fill="#000000" stroke="#000000" points="479.9107,-133.3447 478.4493,-122.8511 473.0478,-131.9657 479.9107,-133.3447"/>
<text text-anchor="middle" x="498.9971" y="-144.8" font-family="Times,serif" font-size="14.00" fill="#000000">output</text>
</g>
<!-- 17 -->
<g id="node17" class="node">
<title>17</title>
<ellipse fill="none" stroke="#c129e2" cx="1706.4971" cy="-105" rx="27" ry="18"/>
<text text-anchor="middle" x="1706.4971" y="-101.3" font-family="Times,serif" font-size="14.00" fill="#000000">du</text>
</g>
<!-- 1&#45;&gt;17 -->
<g id="edge6" class="edge">
<title>1&#45;&gt;17</title>
<path fill="none" stroke="#000000" d="M684.4832,-180.2696C694.9527,-177.9116 706.0652,-175.6534 716.4971,-174 806.8312,-159.6823 830.6166,-166.2944 921.4971,-156 969.6499,-150.5455 981.2575,-145.6241 1029.4971,-141 1093.1649,-134.8969 1536.785,-113.2043 1669.2404,-106.7955"/>
<polygon fill="#000000" stroke="#000000" points="1669.4839,-110.2879 1679.3032,-106.309 1669.1459,-103.296 1669.4839,-110.2879"/>
<text text-anchor="middle" x="1043.4971" y="-144.8" font-family="Times,serif" font-size="14.00" fill="#000000">takes</text>
</g>
<!-- 3 -->
<g id="node3" class="node">
<title>3</title>
<ellipse fill="none" stroke="#c129e2" cx="32.4971" cy="-18" rx="32.4942" ry="18"/>
<text text-anchor="middle" x="32.4971" y="-14.3" font-family="Times,serif" font-size="14.00" fill="#000000">parms</text>
</g>
<!-- 2&#45;&gt;3 -->
<g id="edge7" class="edge">
<title>2&#45;&gt;3</title>
<path fill="none" stroke="#000000" d="M327.5168,-96.2987C265.6552,-85.4069 160.6888,-64.6416 73.4971,-36 71.2538,-35.2631 68.9655,-34.4476 66.6747,-33.5826"/>
<polygon fill="#000000" stroke="#000000" points="67.934,-30.3166 57.3507,-29.8223 65.3157,-36.8086 67.934,-30.3166"/>
<text text-anchor="middle" x="198.9971" y="-57.8" font-family="Times,serif" font-size="14.00" fill="#000000">val</text>
</g>
<!-- 5 -->
<g id="node5" class="node">
<title>5</title>
<ellipse fill="none" stroke="#c129e2" cx="517.4971" cy="-18" rx="27" ry="18"/>
<text text-anchor="middle" x="517.4971" y="-14.3" font-family="Times,serif" font-size="14.00" fill="#000000">β</text>
</g>
<!-- 4&#45;&gt;5 -->
<g id="edge8" class="edge">
<title>4&#45;&gt;5</title>
<path fill="none" stroke="#000000" d="M575.9545,-88.636C565.0246,-75.429 549.4964,-56.6657 537.1909,-41.7967"/>
<polygon fill="#000000" stroke="#000000" points="539.8079,-39.4692 530.7358,-33.9967 534.4151,-43.9322 539.8079,-39.4692"/>
<text text-anchor="middle" x="567.4971" y="-57.8" font-family="Times,serif" font-size="14.00" fill="#000000">var</text>
</g>
<!-- 6 -->
<g id="node6" class="node">
<title>6</title>
<ellipse fill="none" stroke="#c129e2" cx="589.4971" cy="-18" rx="27" ry="18"/>
<text text-anchor="middle" x="589.4971" y="-14.3" font-family="Times,serif" font-size="14.00" fill="#000000">r</text>
</g>
<!-- 4&#45;&gt;6 -->
<g id="edge9" class="edge">
<title>4&#45;&gt;6</title>
<path fill="none" stroke="#000000" d="M589.4971,-86.9735C589.4971,-75.1918 589.4971,-59.5607 589.4971,-46.1581"/>
<polygon fill="#000000" stroke="#000000" points="592.9972,-46.0033 589.4971,-36.0034 585.9972,-46.0034 592.9972,-46.0033"/>
<text text-anchor="middle" x="598.4971" y="-57.8" font-family="Times,serif" font-size="14.00" fill="#000000">var</text>
</g>
<!-- 7 -->
<g id="node7" class="node">
<title>7</title>
<ellipse fill="none" stroke="#c129e2" cx="661.4971" cy="-18" rx="27" ry="18"/>
<text text-anchor="middle" x="661.4971" y="-14.3" font-family="Times,serif" font-size="14.00" fill="#000000">μ</text>
</g>
<!-- 4&#45;&gt;7 -->
<g id="edge10" class="edge">
<title>4&#45;&gt;7</title>
<path fill="none" stroke="#000000" d="M603.0398,-88.636C613.9696,-75.429 629.4979,-56.6657 641.8033,-41.7967"/>
<polygon fill="#000000" stroke="#000000" points="644.5791,-43.9322 648.2585,-33.9967 639.1864,-39.4692 644.5791,-43.9322"/>
<text text-anchor="middle" x="639.4971" y="-57.8" font-family="Times,serif" font-size="14.00" fill="#000000">var</text>
</g>
<!-- 8 -->
<g id="node8" class="node">
<title>8</title>
<ellipse fill="none" stroke="#c129e2" cx="373.4971" cy="-18" rx="27" ry="18"/>
<text text-anchor="middle" x="373.4971" y="-14.3" font-family="Times,serif" font-size="14.00" fill="#000000">K</text>
</g>
<!-- 4&#45;&gt;8 -->
<g id="edge11" class="edge">
<title>4&#45;&gt;8</title>
<path fill="none" stroke="#000000" d="M560.8963,-96.0761C539.4163,-89.1839 509.3739,-79.1392 483.4971,-69 449.9681,-55.8625 442.0541,-51.3894 409.4971,-36 407.744,-35.1713 405.948,-34.3108 404.1389,-33.4351"/>
<polygon fill="#000000" stroke="#000000" points="405.6422,-30.2741 395.1234,-29.0067 402.556,-36.557 405.6422,-30.2741"/>
<text text-anchor="middle" x="492.4971" y="-57.8" font-family="Times,serif" font-size="14.00" fill="#000000">var</text>
</g>
<!-- 9 -->
<g id="node9" class="node">
<title>9</title>
<ellipse fill="none" stroke="#c129e2" cx="445.4971" cy="-18" rx="27" ry="18"/>
<text text-anchor="middle" x="445.4971" y="-14.3" font-family="Times,serif" font-size="14.00" fill="#000000">α</text>
</g>
<!-- 4&#45;&gt;9 -->
<g id="edge12" class="edge">
<title>4&#45;&gt;9</title>
<path fill="none" stroke="#000000" d="M566.7256,-91.9982C554.9622,-85.2261 540.4052,-76.7592 527.4971,-69 509.6001,-58.2419 489.7071,-45.8795 473.997,-36.0206"/>
<polygon fill="#000000" stroke="#000000" points="475.6056,-32.8976 465.2772,-30.5361 471.8787,-38.823 475.6056,-32.8976"/>
<text text-anchor="middle" x="536.4971" y="-57.8" font-family="Times,serif" font-size="14.00" fill="#000000">var</text>
</g>
<!-- 11 -->
<g id="node11" class="node">
<title>11</title>
<ellipse fill="none" stroke="#c129e2" cx="871.4971" cy="-18" rx="165.1707" ry="18"/>
<text text-anchor="middle" x="871.4971" y="-14.3" font-family="Times,serif" font-size="14.00" fill="#000000">r star (1 neg S / K) star S neg β star S star I</text>
</g>
<!-- 10&#45;&gt;11 -->
<g id="edge13" class="edge">
<title>10&#45;&gt;11</title>
<path fill="none" stroke="#000000" d="M871.4971,-86.9735C871.4971,-75.1918 871.4971,-59.5607 871.4971,-46.1581"/>
<polygon fill="#000000" stroke="#000000" points="874.9972,-46.0033 871.4971,-36.0034 867.9972,-46.0034 874.9972,-46.0033"/>
<text text-anchor="middle" x="879.9971" y="-57.8" font-family="Times,serif" font-size="14.00" fill="#000000">val</text>
</g>
<!-- 13 -->
<g id="node13" class="node">
<title>13</title>
<ellipse fill="none" stroke="#c129e2" cx="1317.4971" cy="-18" rx="263.4535" ry="18"/>
<text text-anchor="middle" x="1317.4971" y="-14.3" font-family="Times,serif" font-size="14.00" fill="#000000">Symbol[Symbol( r star (1 neg S / K) star S ), Symbol( β star S star I )]</text>
</g>
<!-- 12&#45;&gt;13 -->
<g id="edge14" class="edge">
<title>12&#45;&gt;13</title>
<path fill="none" stroke="#000000" d="M1288.7823,-87.3943C1293.7421,-75.408 1300.4084,-59.2978 1306.0694,-45.617"/>
<polygon fill="#000000" stroke="#000000" points="1309.3855,-46.7569 1309.975,-36.1785 1302.9174,-44.0804 1309.3855,-46.7569"/>
<text text-anchor="middle" x="1312.9971" y="-57.8" font-family="Times,serif" font-size="14.00" fill="#000000">args</text>
</g>
<!-- 16 -->
<g id="node16" class="node">
<title>16</title>
<ellipse fill="none" stroke="#c129e2" cx="1819.4971" cy="-18" rx="220.9608" ry="18"/>
<text text-anchor="middle" x="1819.4971" y="-14.3" font-family="Times,serif" font-size="14.00" fill="#000000">Symbol[Symbol( β star S star I ), Symbol( (μ + α) star I )]</text>
</g>
<!-- 12&#45;&gt;16 -->
<g id="edge15" class="edge">
<title>12&#45;&gt;16</title>
<path fill="none" stroke="#000000" d="M1307.8102,-100.7449C1379.5983,-89.1361 1581.9842,-56.4082 1709.6624,-35.7614"/>
<polygon fill="#000000" stroke="#000000" points="1710.554,-39.1628 1719.867,-34.1112 1709.4365,-32.2525 1710.554,-39.1628"/>
<text text-anchor="middle" x="1593.9971" y="-57.8" font-family="Times,serif" font-size="14.00" fill="#000000">args</text>
</g>
<!-- 15 -->
<g id="node15" class="node">
<title>15</title>
<ellipse fill="none" stroke="#c129e2" cx="205.4971" cy="-18" rx="122.6784" ry="18"/>
<text text-anchor="middle" x="205.4971" y="-14.3" font-family="Times,serif" font-size="14.00" fill="#000000">β star S star I neg (μ + α) star I</text>
</g>
<!-- 14&#45;&gt;15 -->
<g id="edge16" class="edge">
<title>14&#45;&gt;15</title>
<path fill="none" stroke="#000000" d="M464.4764,-93.6628C459.6337,-91.2844 454.4491,-88.9185 449.4971,-87 394.5801,-65.7238 330.4247,-47.8411 281.6846,-35.6156"/>
<polygon fill="#000000" stroke="#000000" points="282.3873,-32.1839 271.8385,-33.1702 280.6999,-38.9775 282.3873,-32.1839"/>
<text text-anchor="middle" x="405.9971" y="-57.8" font-family="Times,serif" font-size="14.00" fill="#000000">val</text>
</g>
<!-- 18 -->
<g id="node18" class="node">
<title>18</title>
<ellipse fill="none" stroke="#c129e2" cx="2096.4971" cy="-18" rx="38.1938" ry="18"/>
<text text-anchor="middle" x="2096.4971" y="-14.3" font-family="Times,serif" font-size="14.00" fill="#000000">[dS, dI]</text>
</g>
<!-- 17&#45;&gt;18 -->
<g id="edge17" class="edge">
<title>17&#45;&gt;18</title>
<path fill="none" stroke="#000000" d="M1733.1093,-101.2011C1791.2532,-92.5642 1933.692,-69.5677 2049.4971,-36 2052.2901,-35.1904 2055.1513,-34.2871 2058.0157,-33.3281"/>
<polygon fill="#000000" stroke="#000000" points="2059.4145,-36.5458 2067.6726,-29.9084 2057.0778,-29.9473 2059.4145,-36.5458"/>
<text text-anchor="middle" x="1982.9971" y="-57.8" font-family="Times,serif" font-size="14.00" fill="#000000">val</text>
</g>
<!-- 19 -->
<g id="node19" class="node">
<title>19</title>
<ellipse fill="none" stroke="#c129e2" cx="2198.4971" cy="-18" rx="45.4919" ry="18"/>
<text text-anchor="middle" x="2198.4971" y="-14.3" font-family="Times,serif" font-size="14.00" fill="#000000">collection</text>
</g>
<!-- 17&#45;&gt;19 -->
<g id="edge18" class="edge">
<title>17&#45;&gt;19</title>
<path fill="none" stroke="#000000" d="M1733.3186,-102.5227C1784.5113,-97.6034 1899.5969,-85.6255 1995.4971,-69 2061.8997,-57.4883 2078.5069,-53.8352 2143.4971,-36 2147.0487,-35.0254 2150.7108,-33.9608 2154.379,-32.852"/>
<polygon fill="#000000" stroke="#000000" points="2155.5249,-36.161 2164.0314,-29.8452 2153.443,-29.4777 2155.5249,-36.161"/>
<text text-anchor="middle" x="2094.4971" y="-57.8" font-family="Times,serif" font-size="14.00" fill="#000000">property</text>
</g>
<!-- 20 -->
<g id="node20" class="node">
<title>20</title>
<ellipse fill="none" stroke="#c129e2" cx="889.4971" cy="-192" rx="164.3708" ry="18"/>
<text text-anchor="middle" x="889.4971" y="-188.3" font-family="Times,serif" font-size="14.00" fill="#000000">ScalingModel.micro_1(du, u, parms, time)</text>
</g>
<!-- 20&#45;&gt;2 -->
<g id="edge19" class="edge">
<title>20&#45;&gt;2</title>
<path fill="none" stroke="#000000" d="M768.3697,-179.7926C671.8544,-169.9869 551.9573,-157.5944 546.4971,-156 532.1876,-151.8215 530.4423,-146.2683 516.4971,-141 514.4587,-140.2299 472.4096,-129.1258 435.603,-119.4515"/>
<polygon fill="#000000" stroke="#000000" points="436.4547,-116.0566 425.8935,-116.9006 434.6759,-122.8268 436.4547,-116.0566"/>
<text text-anchor="middle" x="576.9971" y="-144.8" font-family="Times,serif" font-size="14.00" fill="#000000">destructure</text>
</g>
<!-- 20&#45;&gt;4 -->
<g id="edge20" class="edge">
<title>20&#45;&gt;4</title>
<path fill="none" stroke="#000000" d="M837.2899,-174.7867C822.8292,-169.3873 807.3156,-162.9904 793.4971,-156 782.6072,-150.4911 781.7981,-145.6073 770.4971,-141 725.209,-122.5365 669.5748,-113.292 632.0352,-108.837"/>
<polygon fill="#000000" stroke="#000000" points="632.2789,-105.3425 621.9506,-107.7038 631.4972,-112.2987 632.2789,-105.3425"/>
<text text-anchor="middle" x="808.9971" y="-144.8" font-family="Times,serif" font-size="14.00" fill="#000000">comp</text>
</g>
<!-- 20&#45;&gt;10 -->
<g id="edge21" class="edge">
<title>20&#45;&gt;10</title>
<path fill="none" stroke="#000000" d="M885.7675,-173.9735C883.3299,-162.1918 880.0959,-146.5607 877.3229,-133.1581"/>
<polygon fill="#000000" stroke="#000000" points="880.6755,-132.0868 875.222,-123.0034 873.8207,-133.5051 880.6755,-132.0868"/>
<text text-anchor="middle" x="899.9971" y="-144.8" font-family="Times,serif" font-size="14.00" fill="#000000">output</text>
</g>
<!-- 20&#45;&gt;12 -->
<g id="edge22" class="edge">
<title>20&#45;&gt;12</title>
<path fill="none" stroke="#000000" d="M962.3106,-175.8399C1046.4151,-157.1738 1181.411,-127.213 1245.4929,-112.9907"/>
<polygon fill="#000000" stroke="#000000" points="1246.5108,-116.3501 1255.5149,-110.7665 1244.9941,-109.5163 1246.5108,-116.3501"/>
<text text-anchor="middle" x="1122.4971" y="-144.8" font-family="Times,serif" font-size="14.00" fill="#000000">input</text>
</g>
<!-- 20&#45;&gt;14 -->
<g id="edge23" class="edge">
<title>20&#45;&gt;14</title>
<path fill="none" stroke="#000000" d="M780.5994,-178.4606C737.3602,-172.1268 693.254,-164.1836 673.4971,-156 662.9004,-151.6107 663.0801,-145.4223 652.4971,-141 609.2146,-122.9136 594.2258,-133.4584 548.4971,-123 539.1322,-120.8582 529.0899,-118.1706 519.8362,-115.5304"/>
<polygon fill="#000000" stroke="#000000" points="520.754,-112.1523 510.1739,-112.7121 518.7939,-118.8723 520.754,-112.1523"/>
<text text-anchor="middle" x="690.9971" y="-144.8" font-family="Times,serif" font-size="14.00" fill="#000000">output</text>
</g>
<!-- 20&#45;&gt;17 -->
<g id="edge24" class="edge">
<title>20&#45;&gt;17</title>
<path fill="none" stroke="#000000" d="M1007.4234,-179.4424C1195.5443,-159.4099 1554.1266,-121.2255 1669.6507,-108.9237"/>
<polygon fill="#000000" stroke="#000000" points="1670.1738,-112.3878 1679.7469,-107.8486 1669.4325,-105.4272 1670.1738,-112.3878"/>
<text text-anchor="middle" x="1360.4971" y="-144.8" font-family="Times,serif" font-size="14.00" fill="#000000">takes</text>
</g>
</g>
</svg>
